<?xml version="1.0" standalone="no"?>
<!DOCTYPE svg PUBLIC "-//W3C//DTD SVG 20010904//EN"
 "http://www.w3.org/TR/2001/REC-SVG-20010904/DTD/svg10.dtd">
<svg version="1.0" xmlns="http://www.w3.org/2000/svg"
 width="800.000000pt" height="800.000000pt" viewBox="0 0 800.000000 800.000000"
 preserveAspectRatio="xMidYMid meet">
<metadata>
Created by potrace 1.11, written by Peter Selinger 2001-2013
</metadata>
<g transform="translate(0.000000,800.000000) scale(0.100000,-0.100000)"
fill="#000000" stroke="none">
<path d="M3779 7935 c-2 -1 -43 -6 -91 -9 -48 -3 -102 -8 -120 -10 -18 -3 -51
-7 -73 -10 -397 -50 -800 -166 -1159 -335 -59 -28 -110 -51 -111 -51 -2 0 -71
-38 -153 -84 -400 -225 -777 -532 -1061 -866 -35 -41 -73 -86 -85 -100 -40
-47 -182 -245 -239 -331 -125 -194 -251 -435 -342 -658 -40 -99 -128 -353
-140 -406 -2 -11 -13 -54 -24 -95 -10 -41 -25 -102 -32 -135 -7 -33 -13 -62
-14 -65 -1 -3 -5 -25 -9 -50 -5 -25 -10 -54 -12 -65 -3 -11 -6 -36 -9 -55 -12
-99 -18 -137 -21 -155 -19 -99 -26 -592 -11 -765 11 -123 33 -286 52 -385 33
-172 77 -357 94 -400 5 -11 25 -72 46 -135 64 -200 181 -467 275 -630 23 -41
54 -95 67 -119 169 -298 506 -705 770 -933 43 -36 89 -76 103 -89 32 -28 276
-210 315 -235 17 -10 32 -21 35 -24 34 -37 478 -274 635 -339 44 -18 89 -37
100 -41 254 -106 692 -213 995 -245 279 -29 729 -27 935 5 33 5 78 12 100 15
22 2 51 7 65 9 14 3 54 10 90 16 118 20 377 89 522 139 340 115 618 252 913
447 797 526 1382 1332 1629 2244 40 149 88 391 101 513 4 32 8 67 10 78 20
102 27 625 11 779 -4 41 -9 89 -11 105 -1 17 -5 44 -8 60 -3 17 -9 53 -12 80
-14 115 -74 380 -123 545 -155 514 -428 1008 -792 1431 -60 70 -301 314 -365
369 -294 255 -584 445 -925 609 -114 55 -373 161 -391 161 -4 0 -20 5 -36 12
-15 6 -30 12 -33 13 -3 0 -36 10 -75 22 -66 21 -209 59 -251 67 -10 3 -39 9
-64 15 -72 16 -141 29 -255 47 -16 2 -41 6 -55 9 -14 2 -54 7 -90 11 -36 3
-83 8 -105 11 -48 5 -561 13 -566 8z"/>
</g>
</svg>
